<?xml version="1.0" encoding="UTF-8"?>
<svg height="224" preserveAspectRatio="xMidYMid meet" version="1.0" viewBox="0 0 557 224" width="557" xmlns="http://www.w3.org/2000/svg" xmlns:svg="http://www.w3.org/2000/svg" xmlns:xlink="http://www.w3.org/1999/xlink">
  <text dominant-baseline="middle" font-family="Source Code Pro" font-size="7.5" text-anchor="middle" x="52" y="8">00</text>
  <text dominant-baseline="middle" font-family="Source Code Pro" font-size="7.5" text-anchor="middle" x="68" y="8">01</text>
  <text dominant-baseline="middle" font-family="Source Code Pro" font-size="7.5" text-anchor="middle" x="84" y="8">02</text>
  <text dominant-baseline="middle" font-family="Source Code Pro" font-size="7.5" text-anchor="middle" x="100" y="8">03</text>
  <text dominant-baseline="middle" font-family="Source Code Pro" font-size="7.5" text-anchor="middle" x="116" y="8">04</text>
  <text dominant-baseline="middle" font-family="Source Code Pro" font-size="7.5" text-anchor="middle" x="132" y="8">05</text>
  <text dominant-baseline="middle" font-family="Source Code Pro" font-size="7.5" text-anchor="middle" x="148" y="8">06</text>
  <text dominant-baseline="middle" font-family="Source Code Pro" font-size="7.5" text-anchor="middle" x="164" y="8">07</text>
  <text dominant-baseline="middle" font-family="Source Code Pro" font-size="7.5" text-anchor="middle" x="180" y="8">08</text>
  <text dominant-baseline="middle" font-family="Source Code Pro" font-size="7.5" text-anchor="middle" x="196" y="8">09</text>
  <text dominant-baseline="middle" font-family="Source Code Pro" font-size="7.5" text-anchor="middle" x="212" y="8">0a</text>
  <text dominant-baseline="middle" font-family="Source Code Pro" font-size="7.5" text-anchor="middle" x="228" y="8">0b</text>
  <text dominant-baseline="middle" font-family="Source Code Pro" font-size="7.5" text-anchor="middle" x="244" y="8">0c</text>
  <text dominant-baseline="middle" font-family="Source Code Pro" font-size="7.5" text-anchor="middle" x="260" y="8">0d</text>
  <text dominant-baseline="middle" font-family="Source Code Pro" font-size="7.5" text-anchor="middle" x="276" y="8">0e</text>
  <text dominant-baseline="middle" font-family="Source Code Pro" font-size="7.5" text-anchor="middle" x="292" y="8">0f</text>
  <text dominant-baseline="middle" font-family="Source Code Pro" font-size="7.5" text-anchor="middle" x="308" y="8">10</text>
  <text dominant-baseline="middle" font-family="Source Code Pro" font-size="7.5" text-anchor="middle" x="324" y="8">11</text>
  <text dominant-baseline="middle" font-family="Source Code Pro" font-size="7.5" text-anchor="middle" x="340" y="8">12</text>
  <text dominant-baseline="middle" font-family="Source Code Pro" font-size="7.5" text-anchor="middle" x="356" y="8">13</text>
  <text dominant-baseline="middle" font-family="Source Code Pro" font-size="7.5" text-anchor="middle" x="372" y="8">14</text>
  <text dominant-baseline="middle" font-family="Source Code Pro" font-size="7.5" text-anchor="middle" x="388" y="8">15</text>
  <text dominant-baseline="middle" font-family="Source Code Pro" font-size="7.5" text-anchor="middle" x="404" y="8">16</text>
  <text dominant-baseline="middle" font-family="Source Code Pro" font-size="7.5" text-anchor="middle" x="420" y="8">17</text>
  <text dominant-baseline="middle" font-family="Source Code Pro" font-size="7.5" text-anchor="middle" x="436" y="8">18</text>
  <text dominant-baseline="middle" font-family="Source Code Pro" font-size="7.5" text-anchor="middle" x="452" y="8">19</text>
  <text dominant-baseline="middle" font-family="Source Code Pro" font-size="7.5" text-anchor="middle" x="468" y="8">1a</text>
  <text dominant-baseline="middle" font-family="Source Code Pro" font-size="7.5" text-anchor="middle" x="484" y="8">1b</text>
  <text dominant-baseline="middle" font-family="Source Code Pro" font-size="7.5" text-anchor="middle" x="500" y="8">1c</text>
  <text dominant-baseline="middle" font-family="Source Code Pro" font-size="7.5" text-anchor="middle" x="516" y="8">1d</text>
  <text dominant-baseline="middle" font-family="Source Code Pro" font-size="7.5" text-anchor="middle" x="532" y="8">1e</text>
  <text dominant-baseline="middle" font-family="Source Code Pro" font-size="7.5" text-anchor="middle" x="548" y="8">1f</text>
  <text dominant-baseline="middle" font-family="Source Code Pro" font-size="10" text-anchor="end" x="39" y="28">0x6218</text>
  <line stroke="#000000" stroke-width="1" x1="44" x2="60" y1="15" y2="15"></line>
  <line stroke="#000000" stroke-width="1" x1="44" x2="60" y1="41" y2="41"></line>
  <line stroke="#000000" stroke-width="1" x1="60" x2="60" y1="15" y2="41"></line>
  <line stroke="#000000" stroke-width="1" x1="44" x2="44" y1="15" y2="41"></line>
  <text dominant-baseline="middle" font-family="Source Code Pro" font-size="10" text-anchor="middle" x="52" y="29">LS</text>
  <line stroke="#000000" stroke-width="1" x1="60" x2="300" y1="15" y2="15"></line>
  <line stroke="#000000" stroke-width="1" x1="60" x2="300" y1="41" y2="41"></line>
  <line stroke="#000000" stroke-width="1" x1="300" x2="300" y1="15" y2="41"></line>
  <line stroke="#000000" stroke-width="1" x1="60" x2="60" y1="15" y2="41"></line>
  <text dominant-baseline="middle" font-family="Source Code Pro" font-size="10" text-anchor="middle" x="180" y="29">CL Pixels Per Line</text>
  <line stroke="#000000" stroke-width="1" x1="300" x2="316" y1="15" y2="15"></line>
  <line stroke="#000000" stroke-width="1" x1="300" x2="316" y1="41" y2="41"></line>
  <line stroke="#000000" stroke-width="1" x1="316" x2="316" y1="15" y2="41"></line>
  <line stroke="#000000" stroke-width="1" x1="300" x2="300" y1="15" y2="41"></line>
  <text dominant-baseline="middle" font-family="Source Code Pro" font-size="10" text-anchor="middle" x="308" y="29">CV</text>
  <line stroke="#000000" stroke-width="1" x1="316" x2="556" y1="15" y2="15"></line>
  <line stroke="#000000" stroke-width="1" x1="316" x2="556" y1="41" y2="41"></line>
  <line stroke="#000000" stroke-width="1" x1="556" x2="556" y1="15" y2="41"></line>
  <line stroke="#000000" stroke-width="1" x1="316" x2="316" y1="15" y2="41"></line>
  <text dominant-baseline="middle" font-family="Source Code Pro" font-size="10" text-anchor="middle" x="436" y="29">CL Lines Per Frame</text>
  <line stroke="#000000" stroke-width="1" x1="44" x2="284" y1="41" y2="41"></line>
  <line stroke="#000000" stroke-width="1" x1="44" x2="284" y1="67" y2="67"></line>
  <line stroke="#000000" stroke-width="1" x1="284" x2="284" y1="41" y2="67"></line>
  <line stroke="#000000" stroke-width="1" x1="44" x2="44" y1="41" y2="67"></line>
  <line stroke="#000000" stroke-width="1" x1="284" x2="300" y1="41" y2="41"></line>
  <line stroke="#000000" stroke-width="1" x1="284" x2="300" y1="67" y2="67"></line>
  <line stroke="#000000" stroke-width="1" x1="300" x2="300" y1="41" y2="67"></line>
  <line stroke="#000000" stroke-width="1" x1="284" x2="284" y1="41" y2="67"></line>
  <text dominant-baseline="middle" font-family="Source Code Pro" font-size="10" text-anchor="middle" x="292" y="55">XA</text>
  <line stroke="#000000" stroke-width="1" x1="300" x2="556" y1="41" y2="41"></line>
  <line stroke="#000000" stroke-width="1" x1="300" x2="556" y1="67" y2="67"></line>
  <line stroke="#000000" stroke-width="1" x1="556" x2="556" y1="41" y2="67"></line>
  <line stroke="#000000" stroke-width="1" x1="300" x2="300" y1="41" y2="67"></line>
  <text dominant-baseline="middle" font-family="Source Code Pro" font-size="10" text-anchor="end" x="39" y="54">0x621C</text>
  <line stroke="#000000" stroke-width="1" x1="44" x2="524" y1="67" y2="67"></line>
  <line stroke="#000000" stroke-width="1" x1="44" x2="524" y1="93" y2="93"></line>
  <line stroke="#000000" stroke-width="1" x1="524" x2="524" y1="67" y2="93"></line>
  <line stroke="#000000" stroke-width="1" x1="44" x2="44" y1="67" y2="93"></line>
  <line stroke="#000000" stroke-width="1" x1="524" x2="540" y1="67" y2="67"></line>
  <line stroke="#000000" stroke-width="1" x1="524" x2="540" y1="93" y2="93"></line>
  <line stroke="#000000" stroke-width="1" x1="540" x2="540" y1="67" y2="93"></line>
  <line stroke="#000000" stroke-width="1" x1="524" x2="524" y1="67" y2="93"></line>
  <text dominant-baseline="middle" font-family="Source Code Pro" font-size="10" text-anchor="middle" x="532" y="81">RP</text>
  <line stroke="#000000" stroke-width="1" x1="540" x2="556" y1="67" y2="67"></line>
  <line stroke="#000000" stroke-width="1" x1="540" x2="556" y1="93" y2="93"></line>
  <line stroke="#000000" stroke-width="1" x1="556" x2="556" y1="67" y2="93"></line>
  <line stroke="#000000" stroke-width="1" x1="540" x2="540" y1="67" y2="93"></line>
  <text dominant-baseline="middle" font-family="Source Code Pro" font-size="10" text-anchor="end" x="39" y="80">0x6220</text>
  <line stroke="#000000" stroke-width="1" x1="44" x2="172" y1="93" y2="93"></line>
  <line stroke="#000000" stroke-width="1" x1="44" x2="172" y1="119" y2="119"></line>
  <line stroke="#000000" stroke-width="1" x1="172" x2="172" y1="93" y2="119"></line>
  <line stroke="#000000" stroke-width="1" x1="44" x2="44" y1="93" y2="119"></line>
  <text dominant-baseline="middle" font-family="Source Code Pro" font-size="10" text-anchor="middle" x="108" y="107">Cl Clk Rate</text>
  <line stroke="#000000" stroke-width="1" x1="172" x2="556" y1="93" y2="93"></line>
  <line stroke="#000000" stroke-width="1" x1="172" x2="556" y1="119" y2="119"></line>
  <line stroke="#000000" stroke-width="1" x1="556" x2="556" y1="93" y2="119"></line>
  <line stroke="#000000" stroke-width="1" x1="172" x2="172" y1="93" y2="119"></line>
  <text dominant-baseline="middle" font-family="Source Code Pro" font-size="10" text-anchor="middle" x="364" y="107">Cl FVal Count</text>
  <text dominant-baseline="middle" font-family="Source Code Pro" font-size="10" text-anchor="end" x="39" y="106">0x6224</text>
  <line stroke="#000000" stroke-width="1" x1="44" x2="300" y1="119" y2="119"></line>
  <line stroke="#000000" stroke-width="1" x1="44" x2="300" y1="145" y2="145"></line>
  <line stroke="#000000" stroke-width="1" x1="300" x2="300" y1="119" y2="145"></line>
  <line stroke="#000000" stroke-width="1" x1="44" x2="44" y1="119" y2="145"></line>
  <text dominant-baseline="middle" font-family="Source Code Pro" font-size="10" text-anchor="middle" x="172" y="133">Cxp Frames Per Second</text>
  <line stroke="#000000" stroke-width="1" x1="300" x2="556" y1="119" y2="119"></line>
  <line stroke="#000000" stroke-width="1" x1="300" x2="556" y1="145" y2="145"></line>
  <line stroke="#000000" stroke-width="1" x1="556" x2="556" y1="119" y2="145"></line>
  <line stroke="#000000" stroke-width="1" x1="300" x2="300" y1="119" y2="145"></line>
  <text dominant-baseline="middle" font-family="Source Code Pro" font-size="10" text-anchor="middle" x="428" y="133">Cl Frames Per Second</text>
  <text dominant-baseline="middle" font-family="Source Code Pro" font-size="10" text-anchor="end" x="39" y="132">0x6228</text>
  <line stroke="#000000" stroke-width="1" x1="44" x2="300" y1="145" y2="145"></line>
  <line stroke="#000000" stroke-width="1" x1="44" x2="300" y1="171" y2="171"></line>
  <line stroke="#000000" stroke-width="1" x1="300" x2="300" y1="145" y2="171"></line>
  <line stroke="#000000" stroke-width="1" x1="44" x2="44" y1="145" y2="171"></line>
  <line stroke="#000000" stroke-width="1" x1="300" x2="556" y1="145" y2="145"></line>
  <line stroke="#000000" stroke-width="1" x1="300" x2="556" y1="171" y2="171"></line>
  <line stroke="#000000" stroke-width="1" x1="556" x2="556" y1="145" y2="171"></line>
  <line stroke="#000000" stroke-width="1" x1="300" x2="300" y1="145" y2="171"></line>
  <text dominant-baseline="middle" font-family="Source Code Pro" font-size="10" text-anchor="middle" x="428" y="159">Cl Triggers Per Second</text>
  <text dominant-baseline="middle" font-family="Source Code Pro" font-size="10" text-anchor="end" x="39" y="158">0x622C</text>
  <line stroke="#000000" stroke-width="1" x1="44" x2="508" y1="171" y2="171"></line>
  <line stroke="#000000" stroke-width="1" x1="44" x2="508" y1="197" y2="197"></line>
  <line stroke="#000000" stroke-width="1" x1="508" x2="508" y1="171" y2="197"></line>
  <line stroke="#000000" stroke-width="1" x1="44" x2="44" y1="171" y2="197"></line>
  <line stroke="#000000" stroke-width="1" x1="508" x2="556" y1="171" y2="171"></line>
  <line stroke="#000000" stroke-width="1" x1="508" x2="556" y1="197" y2="197"></line>
  <line stroke="#000000" stroke-width="1" x1="556" x2="556" y1="171" y2="197"></line>
  <line stroke="#000000" stroke-width="1" x1="508" x2="508" y1="171" y2="197"></line>
  <text dominant-baseline="middle" font-family="Source Code Pro" font-size="10" text-anchor="middle" x="532" y="185">ClPhase</text>
  <text dominant-baseline="middle" font-family="Source Code Pro" font-size="10" text-anchor="end" x="39" y="184">0x6260</text>
  <line stroke="#000000" stroke-width="1" x1="44" x2="300" y1="197" y2="197"></line>
  <line stroke="#000000" stroke-width="1" x1="44" x2="300" y1="223" y2="223"></line>
  <line stroke="#000000" stroke-width="1" x1="300" x2="300" y1="197" y2="223"></line>
  <line stroke="#000000" stroke-width="1" x1="44" x2="44" y1="197" y2="223"></line>
  <line stroke="#000000" stroke-width="1" x1="300" x2="316" y1="197" y2="197"></line>
  <line stroke="#000000" stroke-width="1" x1="300" x2="316" y1="223" y2="223"></line>
  <line stroke="#000000" stroke-width="1" x1="316" x2="316" y1="197" y2="223"></line>
  <line stroke="#000000" stroke-width="1" x1="300" x2="300" y1="197" y2="223"></line>
  <text dominant-baseline="middle" font-family="Source Code Pro" font-size="10" text-anchor="middle" writing-mode="vertical-rl" x="308" y="211">ClI</text>
  <line stroke="#000000" stroke-width="1" x1="316" x2="428" y1="197" y2="197"></line>
  <line stroke="#000000" stroke-width="1" x1="316" x2="428" y1="223" y2="223"></line>
  <line stroke="#000000" stroke-width="1" x1="428" x2="428" y1="197" y2="223"></line>
  <line stroke="#000000" stroke-width="1" x1="316" x2="316" y1="197" y2="223"></line>
  <text dominant-baseline="middle" font-family="Source Code Pro" font-size="10" text-anchor="middle" x="372" y="211">Lane 2 Activity</text>
  <line stroke="#000000" stroke-width="1" x1="428" x2="444" y1="197" y2="197"></line>
  <line stroke="#000000" stroke-width="1" x1="428" x2="444" y1="223" y2="223"></line>
  <line stroke="#000000" stroke-width="1" x1="444" x2="444" y1="197" y2="223"></line>
  <line stroke="#000000" stroke-width="1" x1="428" x2="428" y1="197" y2="223"></line>
  <text dominant-baseline="middle" font-family="Source Code Pro" font-size="10" text-anchor="middle" writing-mode="vertical-rl" x="436" y="211">ClR</text>
  <line stroke="#000000" stroke-width="1" x1="444" x2="556" y1="197" y2="197"></line>
  <line stroke="#000000" stroke-width="1" x1="444" x2="556" y1="223" y2="223"></line>
  <line stroke="#000000" stroke-width="1" x1="556" x2="556" y1="197" y2="223"></line>
  <line stroke="#000000" stroke-width="1" x1="444" x2="444" y1="197" y2="223"></line>
  <text dominant-baseline="middle" font-family="Source Code Pro" font-size="10" text-anchor="middle" x="500" y="211">Lane 3 Activity</text>
  <text dominant-baseline="middle" font-family="Source Code Pro" font-size="10" text-anchor="end" x="39" y="210">0x6268</text>
  <line stroke="#000000" stroke-width="1" x1="44" x2="556" y1="197" y2="197"></line>
</svg>
